<svg xmlns="http://www.w3.org/2000/svg" xmlns:xlink="http://www.w3.org/1999/xlink" width="500" zoomAndPan="magnify" viewBox="0 0 375 374.999991" height="500" preserveAspectRatio="xMidYMid meet" version="1.0"><defs><g/><clipPath id="e8289f8c3d"><path d="M 16.363281 159 L 358.363281 159 L 358.363281 214 L 16.363281 214 Z M 16.363281 159 " clip-rule="nonzero"/></clipPath></defs><g clip-path="url(#e8289f8c3d)"><path fill="#000000" d="M 16.363281 201.667969 L 16.550781 201.605469 L 48.671875 185.519531 C 54.699219 182.722656 60.097656 180.554688 64.871094 179.019531 C 69.265625 177.304688 76.277344 175.695312 85.910156 174.1875 C 91.917969 173.414062 97.945312 173.128906 103.988281 173.332031 C 113.835938 173.652344 126.113281 175.691406 140.820312 179.441406 L 156.167969 183.6875 C 158.980469 184.425781 169.527344 187.75 187.816406 193.671875 C 201.160156 197.65625 210.847656 200.488281 216.878906 202.15625 C 229.210938 205.730469 241.210938 208.558594 252.882812 210.640625 C 277.242188 214.617188 297.300781 213.882812 313.058594 208.445312 C 323.148438 205.261719 332.34375 199.734375 340.636719 191.863281 C 345.714844 187.464844 351.617188 178.820312 358.347656 165.933594 C 347.484375 178.351562 337.027344 187.085938 326.972656 192.140625 C 317.050781 197.398438 304.722656 200.03125 289.984375 200.042969 C 280.144531 200.121094 267.375 198.238281 251.667969 194.390625 L 239.542969 190.960938 L 229.84375 187.933594 L 190.496094 174.804688 C 177.386719 170.925781 166.023438 167.871094 156.402344 165.640625 C 139.328125 161.582031 124.132812 159.378906 110.804688 159.023438 C 75.625 158.523438 44.144531 172.738281 16.363281 201.667969 " fill-opacity="1" fill-rule="nonzero"/></g><path fill="#000000" d="M 39.476562 201.875 L 39.597656 201.855469 L 44.527344 200.472656 L 61.613281 195.191406 C 64.902344 194.261719 68.050781 193.449219 71.0625 192.757812 C 77.402344 191.304688 83.90625 190.535156 90.570312 190.445312 L 95.09375 190.515625 L 101.023438 191 C 104.628906 191.035156 106.46875 191.078125 106.546875 191.128906 C 109.441406 191.3125 113.027344 191.6875 117.308594 192.25 C 120.019531 192.574219 125.355469 193.480469 133.316406 194.96875 C 145.988281 197.59375 155.433594 199.367188 161.660156 200.285156 C 163.652344 200.695312 165.054688 201.050781 165.875 201.355469 C 165.238281 201.164062 164.132812 200.707031 162.5625 199.984375 C 155.800781 196.605469 150.839844 194.253906 147.683594 192.933594 C 142.742188 190.761719 137.035156 188.578125 130.550781 186.378906 C 118.105469 182.359375 107.964844 180.058594 100.136719 179.484375 C 89.527344 179.382812 79.132812 181.25 68.960938 185.082031 C 62.871094 187.375 57.144531 190.070312 51.777344 193.160156 C 42.265625 198.777344 38.164062 201.683594 39.476562 201.875 " fill-opacity="1" fill-rule="nonzero"/><g fill="#000000" fill-opacity="1"><g transform="translate(0.0639007, 22.7839)"><g/></g></g><g fill="#000000" fill-opacity="1"><g transform="translate(3.984818, 22.7839)"><g/></g></g><g fill="#000000" fill-opacity="1"><g transform="translate(7.905735, 22.7839)"><g/></g></g><g fill="#000000" fill-opacity="1"><g transform="translate(11.826652, 22.7839)"><g/></g></g><g fill="#000000" fill-opacity="1"><g transform="translate(15.74757, 22.7839)"><g/></g></g><g fill="#000000" fill-opacity="1"><g transform="translate(19.668487, 22.7839)"><g/></g></g><g fill="#000000" fill-opacity="1"><g transform="translate(23.589404, 22.7839)"><g/></g></g><g fill="#000000" fill-opacity="1"><g transform="translate(27.510321, 22.7839)"><g/></g></g><g fill="#000000" fill-opacity="1"><g transform="translate(31.431239, 22.7839)"><g/></g></g></svg>