<svg xmlns="http://www.w3.org/2000/svg" xmlns:xlink="http://www.w3.org/1999/xlink" width="500" zoomAndPan="magnify" viewBox="0 0 375 374.999991" height="500" preserveAspectRatio="xMidYMid meet" version="1.0"><defs><g/></defs><path fill="#000000" d="M 93.34375 217.621094 C 99.074219 205.980469 102.667969 193.257812 103.449219 180.304688 C 109.28125 179.1875 114.949219 177.242188 119.972656 174.917969 C 137.199219 166.96875 150.699219 153.320312 164.808594 141.023438 C 178.085938 129.457031 193.332031 118.121094 211.304688 115.746094 C 225.113281 113.917969 241.085938 118.761719 248.925781 130.898438 C 240.628906 136.230469 232.011719 142.730469 229.054688 152.4375 C 227.644531 157.074219 227.636719 162.28125 229.519531 166.777344 C 230.320312 168.691406 231.960938 172.136719 234.152344 172.738281 C 235.953125 173.230469 238.738281 172.199219 240.425781 171.550781 C 248.378906 168.503906 253.980469 161.429688 256.496094 153.441406 C 258.664062 146.5625 258.367188 139.203125 255.582031 132.667969 C 257.304688 131.617188 259.046875 130.597656 260.804688 129.609375 C 278.140625 119.84375 297.179688 113.207031 316.808594 109.921875 C 327.929688 108.078125 339.125 107.355469 350.390625 107.753906 C 353.648438 107.863281 353.640625 102.8125 350.390625 102.703125 C 341.890625 102.429688 333.410156 102.773438 324.957031 103.726562 C 316.503906 104.679688 308.164062 106.234375 299.9375 108.394531 C 291.710938 110.554688 283.679688 113.292969 275.851562 116.613281 C 268.019531 119.933594 260.46875 123.800781 253.199219 128.210938 C 248.121094 120.40625 239.945312 115.050781 231.113281 112.355469 C 209.550781 105.769531 187.859375 116.296875 171.066406 129.304688 C 152.34375 143.816406 136.480469 163.203125 113.917969 172.050781 C 110.570312 173.378906 107.132812 174.414062 103.609375 175.164062 C 103.609375 174.929688 103.609375 174.695312 103.609375 174.464844 C 103.5625 166.105469 102.257812 157.082031 97.164062 150.1875 C 92.742188 144.207031 85.28125 140.191406 77.707031 141.007812 C 70.253906 141.808594 64.671875 147.394531 63.609375 154.765625 C 62.535156 162.207031 65.558594 169.578125 71.398438 174.277344 C 79.042969 180.433594 88.71875 182.027344 98.332031 181.054688 C 97.097656 198.109375 90.761719 214.585938 80.980469 228.589844 C 70.300781 243.890625 55.167969 256.488281 37.78125 263.457031 C 33.480469 265.175781 29.074219 266.558594 24.5625 267.601562 C 21.394531 268.339844 22.734375 273.207031 25.90625 272.472656 C 55.203125 265.675781 80.164062 244.398438 93.34375 217.621094 Z M 252.304688 149.585938 C 251.011719 155.402344 247.851562 161.160156 242.867188 164.613281 C 240.75 166.082031 238.359375 167.167969 235.828125 167.632812 C 230.886719 161.492188 233.269531 152.355469 237.839844 146.636719 C 240.742188 143.011719 244.433594 140.078125 248.238281 137.449219 C 249.234375 136.761719 250.242188 136.085938 251.253906 135.421875 C 253 139.898438 253.371094 144.769531 252.304688 149.585938 Z M 82.441406 174.542969 C 77.976562 173.105469 73.53125 170.449219 70.957031 166.421875 C 68.773438 163.015625 67.847656 158.648438 68.742188 154.671875 C 69.652344 150.605469 72.382812 147.371094 76.5 146.320312 C 80.617188 145.269531 85.085938 146.539062 88.582031 148.808594 C 97.300781 154.460938 98.664062 166.488281 98.550781 175.972656 C 93.132812 176.554688 87.652344 176.222656 82.441406 174.542969 Z M 82.441406 174.542969 " fill-opacity="1" fill-rule="nonzero"/><g fill="#000000" fill-opacity="1"><g transform="translate(0.0639007, 22.7839)"><g/></g></g><g fill="#000000" fill-opacity="1"><g transform="translate(3.984818, 22.7839)"><g/></g></g><g fill="#000000" fill-opacity="1"><g transform="translate(7.905735, 22.7839)"><g/></g></g><g fill="#000000" fill-opacity="1"><g transform="translate(11.826652, 22.7839)"><g/></g></g><g fill="#000000" fill-opacity="1"><g transform="translate(15.74757, 22.7839)"><g/></g></g><g fill="#000000" fill-opacity="1"><g transform="translate(19.668487, 22.7839)"><g/></g></g><g fill="#000000" fill-opacity="1"><g transform="translate(23.589404, 22.7839)"><g/></g></g><g fill="#000000" fill-opacity="1"><g transform="translate(27.510321, 22.7839)"><g/></g></g><g fill="#000000" fill-opacity="1"><g transform="translate(31.431239, 22.7839)"><g/></g></g></svg>