<svg xmlns="http://www.w3.org/2000/svg" xmlns:xlink="http://www.w3.org/1999/xlink" width="500" zoomAndPan="magnify" viewBox="0 0 375 374.999991" height="500" preserveAspectRatio="xMidYMid meet" version="1.0"><defs><g/><clipPath id="ea46418e51"><path d="M 77 84.792969 L 298 84.792969 L 298 289 L 77 289 Z M 77 84.792969 " clip-rule="nonzero"/></clipPath></defs><g clip-path="url(#ea46418e51)"><path fill="#280f00" d="M 160.777344 114.976562 C 154.421875 117.722656 147.539062 119.300781 140.636719 119.75 C 128.355469 120.550781 115.859375 117.851562 105.089844 111.882812 C 111.316406 110.90625 117.257812 108.082031 122.972656 105.464844 C 127.03125 103.605469 131.140625 101.773438 135.472656 100.644531 C 140.1875 99.414062 145.078125 99.25 149.875 100.074219 C 157.910156 101.453125 164.949219 104.914062 171.605469 109.167969 C 168.128906 111.34375 164.550781 113.347656 160.777344 114.976562 Z M 103.035156 145.085938 C 106.578125 151.144531 109.964844 158.359375 108.417969 165.5625 C 107.433594 170.128906 104.550781 173.753906 101.285156 176.9375 C 99.226562 173.53125 97.234375 170.085938 95.523438 166.492188 C 93.488281 162.210938 91.957031 157.714844 90.980469 153.078125 C 89.046875 143.878906 89.316406 134.214844 91.75 125.136719 C 92.1875 123.511719 92.695312 121.910156 93.269531 120.332031 C 93.210938 122.4375 93.445312 124.566406 93.914062 126.617188 C 95.464844 133.382812 99.582031 139.191406 103.035156 145.085938 Z M 96.28125 109.921875 C 96.03125 109.902344 95.800781 110.023438 95.679688 110.242188 C 95.113281 111.253906 93.449219 114.316406 91.957031 117.90625 C 88.542969 126.089844 87.238281 135.101562 87.703125 143.957031 C 88.171875 152.917969 90.617188 161.539062 94.6875 169.515625 C 96.234375 172.554688 97.953125 175.492188 99.71875 178.410156 C 99.714844 178.410156 99.714844 178.410156 99.714844 178.410156 C 95.34375 182.394531 90.484375 186 87.074219 190.921875 C 83.4375 196.15625 81.761719 202.761719 82.285156 209.105469 C 82.789062 215.238281 85.304688 221.609375 90.117188 225.628906 C 94.703125 229.457031 101.714844 230.785156 106.859375 227.183594 C 111.230469 224.128906 112.859375 217.464844 109.527344 213.027344 C 106.570312 209.085938 100.160156 208.9375 96.902344 212.648438 C 96.148438 213.507812 95.613281 214.523438 95.371094 215.648438 C 95.089844 216.960938 97.105469 217.523438 97.390625 216.203125 C 98.265625 212.160156 104.085938 210.71875 107.054688 213.390625 C 110.871094 216.835938 109.265625 223.359375 105.167969 225.785156 C 100.15625 228.75 93.949219 226.777344 90.160156 222.792969 C 86.132812 218.5625 84.261719 212.523438 84.285156 206.761719 C 84.3125 200.894531 86.277344 195.0625 89.988281 190.503906 C 93.144531 186.625 97.128906 183.554688 100.824219 180.222656 C 103.367188 184.382812 105.941406 188.523438 108.183594 192.855469 C 112.320312 200.839844 115.453125 209.332031 117.554688 218.074219 C 119.640625 226.765625 120.691406 235.695312 120.65625 244.640625 C 120.628906 253.480469 119.878906 262.816406 116.15625 270.960938 C 112.976562 277.921875 107.234375 284.167969 99.636719 286.15625 C 93.085938 287.867188 85.125 285.667969 81.3125 279.800781 C 77.960938 274.640625 79.019531 266.898438 83.972656 263.074219 C 86.472656 261.144531 89.957031 260.527344 92.878906 261.84375 C 94.304688 262.484375 95.632812 263.660156 96.046875 265.214844 C 96.425781 266.636719 95.957031 268.234375 95.082031 269.386719 C 94.269531 270.449219 93.007812 271.1875 91.652344 270.894531 C 90.335938 270.613281 89.777344 272.636719 91.09375 272.917969 C 94.636719 273.671875 97.65625 270.675781 98.171875 267.316406 C 98.742188 263.585938 96.023438 260.578125 92.617188 259.515625 C 89.191406 258.453125 85.460938 259.28125 82.660156 261.460938 C 80.039062 263.503906 78.300781 266.582031 77.621094 269.816406 C 76.90625 273.222656 77.273438 276.859375 78.957031 279.9375 C 80.71875 283.171875 83.675781 285.648438 87.027344 287.113281 C 94.382812 290.324219 102.542969 288.679688 108.777344 283.847656 C 115.898438 278.324219 119.695312 269.828125 121.339844 261.140625 C 123.101562 251.851562 123.125 242.121094 122.160156 232.738281 C 121.179688 223.199219 119.027344 213.785156 115.714844 204.785156 C 114.078125 200.34375 112.167969 196 109.992188 191.796875 C 107.679688 187.328125 105.019531 183.058594 102.398438 178.773438 C 105.757812 175.558594 108.785156 171.890625 110.121094 167.359375 C 112.011719 160.945312 110.070312 154.171875 107.210938 148.367188 C 104.269531 142.414062 100.167969 137.09375 97.550781 130.96875 C 95.355469 125.816406 94.320312 119.617188 96.550781 114.285156 C 96.875 113.507812 97.285156 112.769531 97.753906 112.070312 C 97.769531 112.070312 97.78125 112.074219 97.796875 112.078125 C 99.0625 112.222656 100.3125 112.261719 101.554688 112.222656 C 110.644531 117.824219 121.089844 121.085938 131.773438 121.824219 C 138.292969 122.277344 144.894531 121.765625 151.265625 120.285156 C 157.980469 118.722656 164.289062 115.964844 170.21875 112.46875 C 171.335938 111.8125 172.4375 111.121094 173.53125 110.421875 C 183.246094 116.898438 192.265625 124.828125 202.566406 130.09375 C 219.003906 138.503906 238.269531 140.855469 256.324219 137.203125 C 265.339844 135.375 274.152344 132.019531 281.964844 127.132812 C 289.785156 122.242188 296.785156 115.007812 297.507812 105.339844 C 297.828125 101.03125 296.660156 96.660156 293.832031 93.347656 C 292.140625 91.367188 289.90625 89.808594 287.441406 88.929688 C 284.074219 87.734375 280.410156 88.089844 277.300781 89.851562 C 271.390625 93.199219 270.5 100.210938 274.367188 104.558594 C 275.632812 105.972656 277.359375 106.96875 279.246094 107.230469 C 280.566406 107.40625 281.136719 105.386719 279.804688 105.207031 C 275.964844 104.683594 273.355469 100.664062 274.253906 96.914062 C 275.15625 93.132812 278.789062 90.417969 282.609375 90.253906 C 286.359375 90.089844 289.949219 92.015625 292.347656 94.828125 C 295.101562 98.054688 295.894531 102.539062 295.265625 106.652344 C 293.863281 115.839844 286.4375 122.199219 278.804688 126.582031 C 271.191406 130.953125 262.820312 133.910156 254.195312 135.480469 C 236.96875 138.625 218.605469 136.117188 203.054688 127.992188 C 193.210938 122.851562 184.601562 115.460938 175.390625 109.21875 C 185.796875 102.339844 195.523438 94.15625 207.371094 89.929688 C 213.792969 87.640625 220.839844 86.355469 227.636719 87.480469 C 234.058594 88.546875 240.34375 91.824219 243.894531 97.449219 C 245.582031 100.128906 246.609375 103.335938 246.273438 106.527344 C 245.960938 109.453125 244.453125 112.242188 242.277344 114.195312 C 240.132812 116.121094 237.121094 117.199219 234.273438 116.433594 C 231.675781 115.734375 228.984375 113.15625 230.585938 110.332031 C 231.1875 109.269531 232.308594 108.390625 233.582031 108.675781 C 234.894531 108.972656 235.457031 106.953125 234.136719 106.652344 C 230.992188 105.945312 228.25 108.707031 228.015625 111.746094 C 227.761719 115 230.609375 117.523438 233.480469 118.386719 C 239.933594 120.324219 246.101562 115.042969 247.871094 109.113281 C 249.859375 102.433594 246.238281 95.453125 241.148438 91.226562 C 235.664062 86.675781 228.46875 84.800781 221.441406 85.003906 C 214.089844 85.214844 206.894531 87.445312 200.320312 90.644531 C 193.386719 94.023438 187.101562 98.601562 180.800781 103.003906 C 178.394531 104.6875 175.972656 106.363281 173.503906 107.964844 C 167.332031 103.933594 160.839844 100.511719 153.488281 98.695312 C 148.917969 97.566406 144.160156 97.128906 139.484375 97.738281 C 135.265625 98.28125 131.234375 99.632812 127.320312 101.269531 C 119.671875 104.460938 112.148438 109.015625 103.78125 109.984375 C 103.222656 110.050781 102.667969 110.089844 102.113281 110.121094 C 100.660156 110.242188 97.417969 110.007812 96.28125 109.921875 " fill-opacity="1" fill-rule="nonzero"/></g><g fill="#280f00" fill-opacity="1"><g transform="translate(0.0639007, 22.7839)"><g/></g></g><g fill="#280f00" fill-opacity="1"><g transform="translate(3.984818, 22.7839)"><g/></g></g><g fill="#280f00" fill-opacity="1"><g transform="translate(7.905735, 22.7839)"><g/></g></g><g fill="#280f00" fill-opacity="1"><g transform="translate(11.826652, 22.7839)"><g/></g></g><g fill="#280f00" fill-opacity="1"><g transform="translate(15.74757, 22.7839)"><g/></g></g><g fill="#280f00" fill-opacity="1"><g transform="translate(19.668487, 22.7839)"><g/></g></g><g fill="#280f00" fill-opacity="1"><g transform="translate(23.589404, 22.7839)"><g/></g></g><g fill="#280f00" fill-opacity="1"><g transform="translate(27.510321, 22.7839)"><g/></g></g><g fill="#280f00" fill-opacity="1"><g transform="translate(31.431239, 22.7839)"><g/></g></g></svg>