<svg xmlns="http://www.w3.org/2000/svg" xmlns:xlink="http://www.w3.org/1999/xlink" width="500" zoomAndPan="magnify" viewBox="0 0 375 374.999991" height="500" preserveAspectRatio="xMidYMid meet" version="1.0"><defs><g/><clipPath id="e86f4c5395"><path d="M 48 225 L 98 225 L 98 277.65625 L 48 277.65625 Z M 48 225 " clip-rule="nonzero"/></clipPath></defs><path fill="#000000" d="M 169.214844 205.171875 C 169.09375 200.484375 168.464844 195.929688 167.457031 191.667969 C 164.765625 180.285156 159.332031 171.03125 153.890625 166.6875 C 150.230469 163.765625 146.449219 162.914062 143.171875 164.140625 C 140.132812 165.28125 137.226562 168.402344 135.4375 174.429688 C 131.746094 186.859375 138.78125 196.867188 150.199219 203.621094 C 154.199219 205.984375 158.734375 207.945312 163.453125 209.472656 C 162.921875 220.648438 159.007812 232.332031 149.558594 242.015625 C 133.816406 258.148438 116.953125 252.867188 101.046875 249.230469 C 90.351562 246.785156 80.011719 245.03125 70.515625 249.035156 C 64.082031 251.742188 57.957031 257.0625 52.425781 266.757812 C 51.636719 268.140625 52.117188 269.898438 53.496094 270.6875 C 54.871094 271.476562 56.628906 270.996094 57.417969 269.617188 C 62.144531 261.332031 67.25 256.65625 72.746094 254.339844 C 81.152344 250.800781 90.296875 252.679688 99.769531 254.84375 C 117.480469 258.894531 136.140625 264.007812 153.675781 246.039062 C 163.839844 235.625 168.265625 223.125 169.089844 211.074219 C 173.871094 212.25 178.695312 212.992188 183.230469 213.269531 C 190.773438 213.730469 197.523438 212.882812 202.046875 210.792969 C 211.851562 206.261719 217.800781 198.664062 221.777344 189.402344 C 225.550781 180.617188 227.523438 170.296875 229.511719 159.84375 C 233.246094 140.199219 236.8125 119.898438 254.898438 109.832031 C 259.214844 107.433594 264.433594 106.757812 269.980469 107.324219 C 278.796875 108.230469 288.402344 112.273438 296.8125 118.082031 C 310.566406 127.585938 321.359375 141.792969 319.40625 155.175781 C 319.175781 156.746094 320.265625 158.210938 321.835938 158.441406 C 323.40625 158.671875 324.867188 157.582031 325.097656 156.007812 C 327.320312 140.765625 315.742188 124.160156 300.078125 113.339844 C 284.402344 102.511719 264.898438 97.683594 252.105469 104.800781 C 232.460938 115.730469 227.917969 137.433594 223.863281 158.765625 C 221.957031 168.792969 220.117188 178.703125 216.496094 187.125 C 213.078125 195.078125 208.054688 201.671875 199.636719 205.5625 C 195.78125 207.34375 190.007812 207.914062 183.582031 207.519531 C 178.980469 207.238281 174.050781 206.449219 169.214844 205.171875 Z M 163.417969 203.390625 C 162.796875 192.734375 159.320312 183 155.003906 176.542969 C 153.234375 173.894531 151.335938 171.816406 149.417969 170.542969 C 148.035156 169.621094 146.691406 169.109375 145.429688 169.457031 C 143.464844 169.996094 142.085938 172.234375 140.949219 176.070312 C 138.054688 185.820312 144.164062 193.363281 153.125 198.660156 C 156.261719 200.515625 159.761719 202.097656 163.417969 203.390625 Z M 163.417969 203.390625 " fill-opacity="1" fill-rule="evenodd"/><g clip-path="url(#e86f4c5395)"><path fill="#000000" d="M 54.199219 274.207031 C 56.984375 274.261719 59.777344 274.207031 62.5625 274.226562 C 69.53125 274.285156 76.496094 274.5625 83.425781 275.324219 C 86.011719 275.609375 89.480469 275.53125 91.878906 276.734375 C 93.742188 277.667969 96.011719 276.910156 96.941406 275.046875 C 97.871094 273.179688 97.117188 270.910156 95.253906 269.976562 C 92.113281 268.402344 87.632812 268.183594 84.25 267.8125 C 77.066406 267.023438 69.847656 266.734375 62.625 266.671875 C 60.367188 266.65625 58.105469 266.691406 55.847656 266.671875 C 55.917969 266.394531 55.988281 266.113281 56.066406 265.828125 C 56.855469 262.824219 58.199219 259.636719 58.75 257.707031 C 59.742188 254.25 60.683594 250.78125 61.710938 247.335938 C 63.371094 241.765625 66.0625 235.359375 66.382812 229.480469 C 66.496094 227.402344 64.902344 225.617188 62.820312 225.503906 C 60.742188 225.390625 58.960938 226.988281 58.847656 229.070312 C 58.558594 234.382812 55.980469 240.140625 54.480469 245.171875 C 53.445312 248.644531 52.496094 252.140625 51.5 255.621094 C 50.933594 257.585938 49.574219 260.839844 48.769531 263.902344 C 48.054688 266.625 47.816406 269.25 48.296875 271.171875 C 48.515625 272.058594 49.050781 273.046875 50.304688 273.695312 C 50.65625 273.875 51.222656 274.082031 51.941406 274.167969 C 52.597656 274.246094 53.945312 274.214844 54.199219 274.207031 Z M 54.199219 274.207031 " fill-opacity="1" fill-rule="evenodd"/></g><g fill="#000000" fill-opacity="1"><g transform="translate(0.0639007, 22.7839)"><g/></g></g><g fill="#000000" fill-opacity="1"><g transform="translate(3.984818, 22.7839)"><g/></g></g><g fill="#000000" fill-opacity="1"><g transform="translate(7.905735, 22.7839)"><g/></g></g><g fill="#000000" fill-opacity="1"><g transform="translate(11.826652, 22.7839)"><g/></g></g><g fill="#000000" fill-opacity="1"><g transform="translate(15.74757, 22.7839)"><g/></g></g><g fill="#000000" fill-opacity="1"><g transform="translate(19.668487, 22.7839)"><g/></g></g><g fill="#000000" fill-opacity="1"><g transform="translate(23.589404, 22.7839)"><g/></g></g><g fill="#000000" fill-opacity="1"><g transform="translate(27.510321, 22.7839)"><g/></g></g><g fill="#000000" fill-opacity="1"><g transform="translate(31.431239, 22.7839)"><g/></g></g></svg>