<svg xmlns="http://www.w3.org/2000/svg" xmlns:xlink="http://www.w3.org/1999/xlink" width="500" zoomAndPan="magnify" viewBox="0 0 375 374.999991" height="500" preserveAspectRatio="xMidYMid meet" version="1.0"><defs><g/></defs><path fill="#000000" d="M 248.214844 215.609375 C 246.054688 229.148438 265.179688 237.351562 258.152344 227.03125 C 254.039062 213.472656 276.535156 217.582031 272.492188 229.351562 C 270.921875 234.882812 267.289062 238.84375 261.589844 239.949219 C 248.402344 242.648438 240.257812 226.722656 241.535156 215.355469 C 244.171875 184.28125 277.265625 166.363281 280.800781 135.316406 C 266.210938 158.792969 247.140625 179.417969 226.808594 198.121094 C 211.507812 210.660156 201.523438 228.089844 199.929688 247.941406 C 198.488281 258.492188 207.753906 273.089844 219.445312 269.328125 C 223.542969 266.820312 214.3125 263.519531 216.492188 257.882812 C 219.375 245.332031 236.039062 255.183594 232.695312 264.917969 C 228.320312 282.574219 206.101562 282.109375 197.167969 268.441406 C 184.058594 250.210938 195.351562 225.554688 206.726562 209.242188 C 230.582031 183.3125 259.660156 161.652344 278.113281 130.960938 C 282.582031 124.304688 294.761719 92.246094 289.503906 120.335938 C 284.1875 174.929688 251.683594 180.089844 248.214844 215.609375 Z M 176.753906 164.542969 C 216 166.964844 253.019531 140.515625 268.578125 105.5 C 268.871094 104.308594 267.121094 102.882812 266.234375 104.21875 C 250.964844 121.890625 226.050781 135.351562 202.253906 130.382812 C 181.171875 126.398438 196.792969 104.261719 196.761719 117.640625 C 200.359375 130.296875 214.90625 117.371094 205.945312 110.074219 C 194.625 99.523438 177.390625 115.371094 186.921875 127.558594 C 196.46875 140.058594 214.953125 138.507812 228.542969 134.5 C 236.683594 132.546875 242.390625 127.308594 250.511719 125.453125 C 226.921875 154.3125 182.476562 169.941406 150.816406 145.796875 C 145.511719 141.960938 141.335938 135.867188 144.988281 129.484375 C 147.339844 127.207031 147.785156 132.269531 149.011719 133.445312 C 165.824219 146.84375 170.699219 113.019531 144.992188 119.027344 C 140.101562 120.394531 136.664062 123.515625 135.359375 128.410156 C 129.507812 150.820312 158.941406 162.445312 176.753906 164.542969 Z M 112.558594 270.445312 C 96.097656 273.554688 87.753906 251.007812 97.265625 238.671875 C 107.472656 224.570312 123.984375 218.070312 140.691406 215.464844 C 169.828125 208.792969 202.667969 200.605469 221.890625 176.109375 C 222.535156 173.851562 219.917969 174.722656 219.234375 175.878906 C 176.246094 218.617188 122.070312 198.117188 94.351562 234.410156 C 80.265625 249.429688 93.289062 281.722656 115.351562 275.515625 C 122.355469 273.25 124.78125 266.160156 120.613281 260.128906 C 113.316406 251.671875 103.941406 263.679688 112.558594 270.445312 Z M 207.289062 194.976562 C 194.867188 205.4375 181.46875 214.683594 165.933594 219.953125 C 158.277344 223.230469 123.324219 231.964844 125.261719 240.574219 C 153.394531 226.703125 189.015625 223.453125 208.441406 196.179688 C 208.960938 195.390625 208.039062 194.546875 207.289062 194.976562 Z M 207.289062 194.976562 " fill-opacity="1" fill-rule="nonzero"/><g fill="#000000" fill-opacity="1"><g transform="translate(0.0639007, 22.7839)"><g/></g></g><g fill="#000000" fill-opacity="1"><g transform="translate(3.984818, 22.7839)"><g/></g></g><g fill="#000000" fill-opacity="1"><g transform="translate(7.905735, 22.7839)"><g/></g></g><g fill="#000000" fill-opacity="1"><g transform="translate(11.826652, 22.7839)"><g/></g></g><g fill="#000000" fill-opacity="1"><g transform="translate(15.74757, 22.7839)"><g/></g></g><g fill="#000000" fill-opacity="1"><g transform="translate(19.668487, 22.7839)"><g/></g></g><g fill="#000000" fill-opacity="1"><g transform="translate(23.589404, 22.7839)"><g/></g></g><g fill="#000000" fill-opacity="1"><g transform="translate(27.510321, 22.7839)"><g/></g></g><g fill="#000000" fill-opacity="1"><g transform="translate(31.431239, 22.7839)"><g/></g></g></svg>