<svg xmlns="http://www.w3.org/2000/svg" xmlns:xlink="http://www.w3.org/1999/xlink" width="500" zoomAndPan="magnify" viewBox="0 0 375 374.999991" height="500" preserveAspectRatio="xMidYMid meet" version="1.0"><defs><g/><clipPath id="a435d7f489"><path d="M 50 116.105469 L 325 116.105469 L 325 258.605469 L 50 258.605469 Z M 50 116.105469 " clip-rule="nonzero"/></clipPath></defs><g clip-path="url(#a435d7f489)"><path fill="#280f00" d="M 54.691406 199.589844 C 54.636719 200.839844 53.578125 201.8125 52.324219 201.757812 C 51.070312 201.707031 50.09375 200.648438 50.148438 199.394531 C 50.28125 196.25 50.589844 193.078125 51.066406 189.902344 C 51.253906 188.664062 52.410156 187.808594 53.652344 187.992188 C 54.894531 188.175781 55.75 189.332031 55.5625 190.570312 C 55.113281 193.589844 54.816406 196.601562 54.691406 199.589844 Z M 57.886719 179.632812 C 57.554688 180.839844 56.304688 181.550781 55.09375 181.222656 C 53.882812 180.890625 53.167969 179.640625 53.5 178.433594 C 55.105469 172.59375 57.246094 166.839844 59.859375 161.328125 C 60.398438 160.195312 61.753906 159.714844 62.886719 160.25 C 64.023438 160.789062 64.507812 162.140625 63.96875 163.273438 C 61.46875 168.539062 59.421875 174.046875 57.886719 179.632812 Z M 69.339844 153.449219 C 68.675781 154.511719 67.273438 154.835938 66.207031 154.171875 C 65.144531 153.511719 64.816406 152.109375 65.480469 151.046875 C 68.769531 145.789062 72.515625 140.898438 76.65625 136.542969 C 77.519531 135.636719 78.960938 135.597656 79.871094 136.460938 C 80.78125 137.324219 80.820312 138.761719 79.953125 139.667969 C 76.019531 143.804688 72.460938 148.453125 69.339844 153.449219 Z M 88.195312 132.21875 C 87.199219 132.984375 85.769531 132.796875 85.003906 131.808594 C 84.238281 130.8125 84.425781 129.390625 85.417969 128.625 C 90.417969 124.78125 95.820312 121.691406 101.550781 119.554688 C 102.726562 119.117188 104.035156 119.714844 104.476562 120.886719 C 104.914062 122.058594 104.316406 123.367188 103.140625 123.804688 C 97.832031 125.785156 92.824219 128.65625 88.195312 132.21875 Z M 113.753906 121.148438 C 112.511719 121.3125 111.367188 120.4375 111.203125 119.195312 C 111.039062 117.953125 111.917969 116.8125 113.160156 116.652344 C 116.695312 116.1875 120.316406 116.085938 124.015625 116.386719 C 126.679688 116.605469 129.246094 116.980469 131.722656 117.496094 C 132.949219 117.75 133.738281 118.953125 133.484375 120.179688 C 133.226562 121.40625 132.023438 122.191406 130.792969 121.9375 C 128.496094 121.460938 126.113281 121.113281 123.644531 120.910156 C 120.273438 120.636719 116.972656 120.730469 113.753906 121.148438 Z M 141.300781 125.234375 C 140.144531 124.742188 139.609375 123.40625 140.101562 122.257812 C 140.59375 121.101562 141.929688 120.570312 143.085938 121.058594 C 148.945312 123.554688 154.179688 126.875 158.847656 130.707031 C 159.816406 131.5 159.953125 132.933594 159.15625 133.898438 C 158.359375 134.867188 156.925781 135.007812 155.957031 134.210938 C 151.617188 130.648438 146.75 127.554688 141.300781 125.234375 Z M 163.976562 141.910156 C 163.140625 140.980469 163.214844 139.542969 164.148438 138.707031 C 165.082031 137.871094 166.519531 137.945312 167.359375 138.878906 C 171.578125 143.5625 175.175781 148.59375 178.222656 153.574219 C 178.875 154.640625 178.535156 156.039062 177.464844 156.691406 C 176.394531 157.34375 174.992188 157.007812 174.339844 155.9375 C 171.433594 151.183594 168.003906 146.382812 163.976562 141.910156 Z M 179.742188 165.804688 C 179.191406 164.679688 179.660156 163.320312 180.785156 162.769531 C 181.914062 162.21875 183.277344 162.6875 183.828125 163.8125 C 187.074219 170.445312 189.320312 176.410156 190.761719 180.574219 C 191.167969 181.757812 190.539062 183.050781 189.355469 183.457031 C 188.167969 183.867188 186.871094 183.238281 186.460938 182.054688 C 185.066406 178.019531 182.890625 172.234375 179.742188 165.804688 Z M 190.304688 192.933594 C 189.851562 191.765625 190.4375 190.453125 191.609375 190.003906 C 192.78125 189.554688 194.097656 190.136719 194.546875 191.304688 C 196.273438 195.789062 198.640625 201.414062 201.667969 207.453125 C 202.230469 208.570312 201.777344 209.9375 200.65625 210.496094 C 199.53125 211.058594 198.164062 210.605469 197.605469 209.484375 C 194.5 203.296875 192.074219 197.53125 190.304688 192.933594 Z M 203.1875 219.683594 C 202.542969 218.609375 202.898438 217.214844 203.976562 216.574219 C 205.054688 215.929688 206.449219 216.285156 207.09375 217.359375 C 210.019531 222.253906 213.359375 227.160156 217.125 231.722656 C 217.925781 232.6875 217.785156 234.117188 216.816406 234.914062 C 215.847656 235.710938 214.414062 235.574219 213.617188 234.609375 C 209.703125 229.867188 206.226562 224.769531 203.1875 219.683594 Z M 221.679688 243.179688 C 220.757812 242.328125 220.703125 240.890625 221.554688 239.972656 C 222.40625 239.054688 223.84375 238.996094 224.765625 239.847656 C 229.027344 243.785156 233.71875 247.164062 238.859375 249.613281 C 239.992188 250.152344 240.472656 251.507812 239.929688 252.636719 C 239.390625 253.765625 238.03125 254.246094 236.898438 253.707031 C 231.351562 251.0625 226.28125 247.429688 221.679688 243.179688 Z M 248.300781 257.511719 C 247.066406 257.269531 246.265625 256.074219 246.507812 254.847656 C 246.75 253.617188 247.945312 252.816406 249.175781 253.058594 C 252.949219 253.796875 256.917969 254.03125 261.09375 253.648438 C 262.824219 253.492188 264.507812 253.265625 266.140625 252.980469 C 267.375 252.761719 268.554688 253.585938 268.773438 254.820312 C 268.992188 256.054688 268.167969 257.230469 266.929688 257.449219 C 265.175781 257.757812 263.367188 258 261.503906 258.167969 C 256.878906 258.589844 252.480469 258.332031 248.300781 257.511719 Z M 278.40625 254.230469 C 277.238281 254.691406 275.917969 254.117188 275.453125 252.953125 C 274.992188 251.789062 275.566406 250.46875 276.730469 250.007812 C 282.28125 247.816406 287.128906 244.800781 291.363281 241.210938 C 292.320312 240.398438 293.757812 240.515625 294.566406 241.46875 C 295.378906 242.421875 295.261719 243.859375 294.308594 244.667969 C 289.707031 248.570312 284.433594 251.847656 278.40625 254.230469 Z M 302.597656 236.171875 C 301.808594 237.144531 300.371094 237.292969 299.398438 236.5 C 298.425781 235.710938 298.277344 234.28125 299.070312 233.308594 C 302.757812 228.785156 305.8125 223.804688 308.351562 218.671875 C 308.90625 217.546875 310.269531 217.085938 311.394531 217.640625 C 312.519531 218.191406 312.984375 219.554688 312.429688 220.675781 C 309.742188 226.113281 306.5 231.382812 302.597656 236.171875 Z M 317.007812 209.902344 C 316.582031 211.082031 315.277344 211.691406 314.097656 211.265625 C 312.917969 210.835938 312.304688 209.535156 312.734375 208.355469 C 314.84375 202.550781 316.390625 196.789062 317.515625 191.480469 C 317.777344 190.253906 318.984375 189.472656 320.210938 189.730469 C 321.4375 189.988281 322.222656 191.195312 321.964844 192.421875 C 320.800781 197.921875 319.195312 203.886719 317.007812 209.902344 Z M 323.917969 180.945312 C 323.757812 182.1875 322.617188 183.066406 321.371094 182.90625 C 320.128906 182.75 319.246094 181.609375 319.40625 180.367188 C 320.097656 174.980469 320.308594 170.738281 320.289062 168.386719 C 320.277344 167.136719 321.289062 166.109375 322.542969 166.097656 C 323.796875 166.089844 324.824219 167.097656 324.835938 168.347656 C 324.855469 170.816406 324.640625 175.28125 323.917969 180.945312 Z M 323.917969 180.945312 " fill-opacity="1" fill-rule="evenodd"/></g><g fill="#280f00" fill-opacity="1"><g transform="translate(0.0639007, 22.7839)"><g/></g></g><g fill="#280f00" fill-opacity="1"><g transform="translate(3.984818, 22.7839)"><g/></g></g><g fill="#280f00" fill-opacity="1"><g transform="translate(7.905735, 22.7839)"><g/></g></g><g fill="#280f00" fill-opacity="1"><g transform="translate(11.826652, 22.7839)"><g/></g></g><g fill="#280f00" fill-opacity="1"><g transform="translate(15.74757, 22.7839)"><g/></g></g><g fill="#280f00" fill-opacity="1"><g transform="translate(19.668487, 22.7839)"><g/></g></g><g fill="#280f00" fill-opacity="1"><g transform="translate(23.589404, 22.7839)"><g/></g></g><g fill="#280f00" fill-opacity="1"><g transform="translate(27.510321, 22.7839)"><g/></g></g><g fill="#280f00" fill-opacity="1"><g transform="translate(31.431239, 22.7839)"><g/></g></g></svg>