<svg xmlns="http://www.w3.org/2000/svg" xmlns:xlink="http://www.w3.org/1999/xlink" width="500" zoomAndPan="magnify" viewBox="0 0 375 374.999991" height="500" preserveAspectRatio="xMidYMid meet" version="1.0"><defs><g/></defs><path fill="#000000" d="M 268.402344 257.929688 C 282.410156 241.171875 296.3125 224.050781 310.625 209.488281 C 313.332031 206.730469 317.0625 210.050781 314.199219 213.167969 C 298.355469 230.234375 286.652344 242.292969 270.5 259.617188 C 269.476562 260.691406 267.484375 259.105469 268.402344 257.929688 Z M 225.925781 244.902344 C 225.160156 246.945312 227.257812 247.96875 228.175781 246.023438 C 238.296875 224.664062 276.53125 129.15625 276.582031 119.5 C 276.582031 116.484375 273.105469 114.441406 271.46875 117.355469 C 268.8125 122.054688 267.484375 127.523438 265.746094 132.632812 C 263.804688 138.203125 233.902344 223.285156 225.925781 244.902344 Z M 183.964844 174.6875 C 183.144531 172.898438 180.894531 172.03125 179.71875 174.484375 C 177.523438 178.929688 178.699219 184.039062 178.953125 188.894531 C 179.261719 195.078125 179.566406 201.261719 179.875 207.445312 C 180.488281 219.453125 180.949219 224.714844 181.5625 243.417969 C 181.714844 248.324219 184.21875 247.199219 184.21875 243.828125 C 184.269531 232.839844 186.773438 180.871094 183.964844 174.6875 Z M 92.113281 256.5 C 83.730469 239.433594 74.988281 223.03125 65.789062 205.65625 C 63.4375 201.210938 57.609375 204.839844 60.214844 209.234375 C 69.929688 225.535156 80.101562 241.476562 89.8125 257.777344 C 90.886719 259.566406 93.03125 258.339844 92.113281 256.5 Z M 134.023438 244.03125 C 129.988281 223.335938 125.949219 202.640625 121.605469 182.046875 C 119.457031 171.929688 117.3125 161.8125 115.164062 151.691406 C 114.089844 146.632812 113.015625 141.574219 111.894531 136.515625 C 110.871094 131.660156 110.359375 126.347656 108.007812 121.902344 C 106.628906 119.296875 102.898438 120.675781 102.792969 123.332031 C 102.589844 127.984375 104.277344 132.683594 105.300781 137.179688 C 106.472656 142.238281 107.648438 147.246094 108.824219 152.304688 C 111.226562 162.730469 113.679688 173.15625 116.136719 183.578125 C 120.992188 204.070312 126.101562 224.460938 131.214844 244.851562 C 131.621094 246.636719 134.332031 245.871094 134.023438 244.03125 Z M 134.023438 244.03125 " fill-opacity="1" fill-rule="nonzero"/><g fill="#000000" fill-opacity="1"><g transform="translate(0.0639007, 22.7839)"><g/></g></g><g fill="#000000" fill-opacity="1"><g transform="translate(3.984818, 22.7839)"><g/></g></g><g fill="#000000" fill-opacity="1"><g transform="translate(7.905735, 22.7839)"><g/></g></g><g fill="#000000" fill-opacity="1"><g transform="translate(11.826652, 22.7839)"><g/></g></g><g fill="#000000" fill-opacity="1"><g transform="translate(15.74757, 22.7839)"><g/></g></g><g fill="#000000" fill-opacity="1"><g transform="translate(19.668487, 22.7839)"><g/></g></g><g fill="#000000" fill-opacity="1"><g transform="translate(23.589404, 22.7839)"><g/></g></g><g fill="#000000" fill-opacity="1"><g transform="translate(27.510321, 22.7839)"><g/></g></g><g fill="#000000" fill-opacity="1"><g transform="translate(31.431239, 22.7839)"><g/></g></g></svg>