<svg xmlns="http://www.w3.org/2000/svg" xmlns:xlink="http://www.w3.org/1999/xlink" width="500" zoomAndPan="magnify" viewBox="0 0 375 374.999991" height="500" preserveAspectRatio="xMidYMid meet" version="1.0"><defs><g/><clipPath id="53811f20e8"><path d="M 221 125.742188 L 256 125.742188 L 256 197 L 221 197 Z M 221 125.742188 " clip-rule="nonzero"/></clipPath><clipPath id="36c8d7751b"><path d="M 287 238 L 311 238 L 311 249.492188 L 287 249.492188 Z M 287 238 " clip-rule="nonzero"/></clipPath><clipPath id="59010374c9"><path d="M 43.878906 240 L 73 240 L 73 248 L 43.878906 248 Z M 43.878906 240 " clip-rule="nonzero"/></clipPath></defs><g clip-path="url(#53811f20e8)"><path fill="#000000" d="M 252.136719 125.742188 C 250.832031 125.742188 249.609375 126.5625 249.15625 127.871094 C 248.558594 129.59375 247.628906 131.863281 246.367188 134.679688 L 232.21875 165.796875 L 232.1875 165.867188 C 226.585938 179.023438 223.046875 187.683594 221.566406 191.84375 C 220.984375 193.492188 221.839844 195.300781 223.484375 195.886719 C 223.835938 196.011719 224.191406 196.070312 224.542969 196.070312 C 225.839844 196.070312 227.058594 195.261719 227.519531 193.96875 C 228.949219 189.941406 232.433594 181.425781 237.964844 168.421875 L 252.121094 137.289062 L 252.128906 137.273438 C 253.464844 134.296875 254.460938 131.855469 255.121094 129.945312 C 255.695312 128.296875 254.824219 126.492188 253.175781 125.917969 C 252.832031 125.800781 252.484375 125.742188 252.136719 125.742188 Z M 252.136719 125.742188 " fill-opacity="1" fill-rule="nonzero"/></g><path fill="#000000" d="M 257.277344 182.714844 C 256.300781 182.714844 255.339844 183.167969 254.722656 184.019531 C 250.121094 190.367188 246.085938 196.761719 242.613281 203.199219 C 241.78125 204.738281 242.355469 206.65625 243.890625 207.488281 C 244.367188 207.746094 244.882812 207.867188 245.390625 207.867188 C 246.511719 207.867188 247.597656 207.265625 248.167969 206.207031 C 251.511719 200.011719 255.398438 193.855469 259.832031 187.738281 C 260.855469 186.324219 260.542969 184.34375 259.132812 183.316406 C 258.570312 182.910156 257.921875 182.714844 257.277344 182.714844 Z M 257.277344 182.714844 " fill-opacity="1" fill-rule="nonzero"/><path fill="#000000" d="M 327.46875 185.863281 C 326.835938 185.863281 326.195312 186.054688 325.640625 186.449219 C 299.578125 205.074219 285.703125 215.195312 284.011719 216.8125 C 283.910156 216.910156 283.820312 217.003906 283.738281 217.09375 C 282.578125 218.398438 282.691406 220.398438 283.996094 221.558594 C 284.597656 222.097656 285.347656 222.363281 286.097656 222.363281 C 286.929688 222.363281 287.761719 222.035156 288.378906 221.386719 L 288.375 221.386719 C 289.84375 219.980469 303.488281 210.050781 329.308594 191.601562 C 330.726562 190.585938 331.054688 188.609375 330.042969 187.1875 C 329.425781 186.324219 328.457031 185.863281 327.46875 185.863281 Z M 327.46875 185.863281 " fill-opacity="1" fill-rule="nonzero"/><g clip-path="url(#36c8d7751b)"><path fill="#000000" d="M 307.351562 238.25 C 307.019531 238.25 306.683594 238.304688 306.351562 238.414062 C 301.195312 240.136719 297.425781 241.351562 295.050781 242.070312 C 293.113281 242.636719 291.386719 243.019531 289.875 243.21875 C 288.144531 243.441406 286.925781 245.03125 287.152344 246.765625 C 287.359375 248.359375 288.71875 249.519531 290.28125 249.519531 C 290.417969 249.519531 290.554688 249.507812 290.691406 249.492188 C 292.539062 249.25 294.589844 248.796875 296.847656 248.136719 L 296.867188 248.128906 C 299.308594 247.394531 303.132812 246.15625 308.347656 244.417969 C 310.003906 243.867188 310.898438 242.074219 310.347656 240.417969 C 309.90625 239.089844 308.675781 238.25 307.351562 238.25 Z M 307.351562 238.25 " fill-opacity="1" fill-rule="nonzero"/></g><path fill="#000000" d="M 187.457031 151.351562 C 187.304688 151.351562 187.148438 151.363281 186.988281 151.386719 C 185.265625 151.640625 184.074219 153.253906 184.328125 154.980469 L 185.515625 162.960938 L 185.511719 162.960938 C 185.734375 164.738281 185.929688 166.832031 186.101562 169.242188 L 186.101562 169.253906 C 186.394531 173.171875 186.589844 179.730469 186.6875 188.929688 C 186.707031 190.664062 188.117188 192.0625 189.847656 192.0625 C 189.859375 192.0625 189.867188 192.058594 189.878906 192.058594 C 191.625 192.042969 193.023438 190.609375 193.003906 188.863281 C 192.90625 179.542969 192.703125 172.855469 192.398438 168.789062 C 192.21875 166.230469 192.007812 164 191.769531 162.105469 L 191.761719 162.03125 L 190.578125 154.050781 C 190.34375 152.480469 188.996094 151.351562 187.457031 151.351562 Z M 187.457031 151.351562 " fill-opacity="1" fill-rule="nonzero"/><path fill="#000000" d="M 132.53125 131.402344 C 132.253906 131.402344 131.964844 131.441406 131.683594 131.519531 C 130.003906 131.992188 129.023438 133.734375 129.492188 135.417969 L 143.738281 186.496094 C 144.128906 187.894531 145.394531 188.808594 146.777344 188.808594 C 147.058594 188.808594 147.34375 188.769531 147.628906 188.691406 C 149.308594 188.222656 150.289062 186.476562 149.820312 184.792969 L 135.574219 133.714844 C 135.183594 132.316406 133.914062 131.402344 132.53125 131.402344 Z M 132.53125 131.402344 " fill-opacity="1" fill-rule="nonzero"/><path fill="#000000" d="M 105.828125 187.65625 C 105.375 187.65625 104.917969 187.753906 104.480469 187.960938 C 102.902344 188.707031 102.230469 190.59375 102.976562 192.171875 C 103.492188 193.265625 104.15625 194.496094 104.972656 195.863281 L 104.996094 195.902344 C 112.386719 207.921875 116.3125 214.390625 116.773438 215.304688 C 117.316406 216.441406 118.449219 217.109375 119.628906 217.109375 C 120.070312 217.109375 120.519531 217.015625 120.945312 216.816406 C 122.53125 216.085938 123.222656 214.207031 122.492188 212.621094 C 122.46875 212.5625 122.441406 212.507812 122.417969 212.460938 L 122.410156 212.445312 C 121.867188 211.371094 117.859375 204.761719 110.394531 192.617188 C 109.683594 191.425781 109.113281 190.378906 108.683594 189.46875 C 108.148438 188.324219 107.011719 187.65625 105.828125 187.65625 Z M 105.828125 187.65625 " fill-opacity="1" fill-rule="nonzero"/><path fill="#000000" d="M 54.421875 175.839844 C 53.652344 175.839844 52.882812 176.121094 52.277344 176.6875 C 51 177.875 50.925781 179.878906 52.113281 181.15625 C 53.769531 182.945312 55.84375 185.457031 58.328125 188.6875 C 73.730469 209.441406 83.277344 222.074219 86.964844 226.585938 C 87.589844 227.347656 88.496094 227.742188 89.410156 227.742188 C 90.113281 227.742188 90.820312 227.507812 91.40625 227.027344 C 92.757812 225.917969 92.953125 223.925781 91.847656 222.574219 C 88.222656 218.140625 78.730469 205.574219 63.363281 184.867188 L 63.332031 184.824219 C 60.730469 181.441406 58.535156 178.785156 56.738281 176.851562 C 56.117188 176.179688 55.269531 175.839844 54.421875 175.839844 Z M 54.421875 175.839844 " fill-opacity="1" fill-rule="nonzero"/><g clip-path="url(#59010374c9)"><path fill="#000000" d="M 49.558594 240.683594 C 48.492188 240.683594 47.597656 240.714844 46.867188 240.777344 C 45.128906 240.933594 43.84375 242.46875 43.996094 244.207031 C 44.140625 245.863281 45.53125 247.105469 46.921875 247.105469 C 46.996094 247.105469 47.070312 247.101562 47.144531 247.09375 L 47.421875 247.082031 C 47.972656 247.035156 48.675781 247.007812 49.539062 247.007812 C 50.035156 247.007812 50.589844 247.015625 51.191406 247.03125 L 51.195312 247.03125 C 52.148438 247.058594 53.058594 247.085938 53.929688 247.121094 L 53.933594 247.121094 C 58.617188 247.316406 61.660156 247.4375 63.070312 247.480469 L 63.066406 247.480469 C 65.105469 247.546875 67.042969 247.601562 68.878906 247.648438 C 68.90625 247.648438 68.929688 247.648438 68.957031 247.648438 C 70.664062 247.648438 72.070312 246.28125 72.113281 244.5625 C 72.152344 242.8125 70.773438 241.363281 69.03125 241.320312 C 67.195312 241.277344 65.273438 241.222656 63.269531 241.15625 L 63.257812 241.152344 C 61.882812 241.113281 58.859375 240.996094 54.183594 240.796875 L 54.171875 240.796875 C 53.304688 240.761719 52.367188 240.734375 51.359375 240.707031 C 50.714844 240.691406 50.113281 240.683594 49.558594 240.683594 Z M 49.558594 240.683594 " fill-opacity="1" fill-rule="nonzero"/></g><g fill="#000000" fill-opacity="1"><g transform="translate(0.0639007, 22.7839)"><g/></g></g><g fill="#000000" fill-opacity="1"><g transform="translate(3.984818, 22.7839)"><g/></g></g><g fill="#000000" fill-opacity="1"><g transform="translate(7.905735, 22.7839)"><g/></g></g><g fill="#000000" fill-opacity="1"><g transform="translate(11.826652, 22.7839)"><g/></g></g><g fill="#000000" fill-opacity="1"><g transform="translate(15.74757, 22.7839)"><g/></g></g><g fill="#000000" fill-opacity="1"><g transform="translate(19.668487, 22.7839)"><g/></g></g><g fill="#000000" fill-opacity="1"><g transform="translate(23.589404, 22.7839)"><g/></g></g><g fill="#000000" fill-opacity="1"><g transform="translate(27.510321, 22.7839)"><g/></g></g><g fill="#000000" fill-opacity="1"><g transform="translate(31.431239, 22.7839)"><g/></g></g></svg>