<svg width="346" height="83" viewBox="0 0 346 83" fill="#edebe7" xmlns="http://www.w3.org/2000/svg">
<path d="M13.4317 73.2115C10.9995 73.2115 9.24424 72.7115 8.16091 71.7115C7.08799 70.7115 6.55674 69.6802 6.55674 68.6281C6.55674 67.5708 6.85362 66.7635 7.45258 66.2115C8.06195 65.6542 8.73383 65.3781 9.47341 65.3781C10.2078 65.3781 10.8901 65.6125 11.5151 66.0865C12.1505 66.5552 12.4734 67.3208 12.4734 68.3781C12.4734 68.8625 12.338 69.3625 12.0776 69.8781C12.3953 69.9875 12.713 70.0552 13.0359 70.0865C13.3536 70.1125 13.6453 70.1281 13.9109 70.1281C16.7026 70.1281 18.8953 69.3625 20.4942 67.8365C22.1036 66.3052 23.2651 64.3885 23.9734 62.0865C24.6922 59.7948 25.0567 57.4615 25.0567 55.0865V28.9823C25.0567 25.399 24.937 22.7115 24.7026 20.9198C24.463 19.1281 24.0984 17.8677 23.5984 17.1281C23.0984 16.3937 22.4213 15.8677 21.5776 15.5448V15.3156C22.6297 15.2062 23.9526 14.8729 25.5359 14.3156C27.1192 13.7635 28.6609 13.0656 30.1609 12.2323C31.6609 11.3885 32.7755 10.5656 33.5151 9.77396L33.7651 9.91979C33.4422 10.451 33.213 11.2427 33.0776 12.2948C32.9526 13.3521 32.8588 14.4927 32.8067 15.7115C32.7495 16.9198 32.7234 18.024 32.7234 19.024V52.5656C32.7234 56.8885 33.088 60.2323 33.8276 62.6073C34.5776 64.9823 35.7911 66.5917 37.4734 67.4406L36.5984 69.2531C34.7495 68.5708 32.8536 68.3625 30.9109 68.6281C30.963 68.0448 30.8067 67.5344 30.4317 67.1073C30.0672 66.6906 29.5672 66.4823 28.9317 66.4823C27.6088 66.4823 26.9526 67.1958 26.9526 68.6281C26.9526 68.9458 27.0359 69.2375 27.2026 69.5031C25.088 70.1802 22.9109 70.9667 20.6609 71.8573C18.4213 72.7583 16.0151 73.2115 13.4317 73.2115ZM0.140076 21.8781C0.140076 19.9771 0.62445 17.9979 1.59841 15.9406C2.56716 13.8885 4.10883 11.951 6.22341 10.1281C8.33278 8.31042 11.088 6.84687 14.4942 5.73229C17.8953 4.62292 21.9995 4.06562 26.8067 4.06562C30.0672 4.06562 33.0567 4.44062 35.7651 5.19062C38.4838 5.93021 41.1661 6.66458 43.8067 7.39896C46.4422 8.13854 49.213 8.50312 52.1192 8.50312C54.3276 8.50312 55.8536 8.14896 56.7026 7.44062C57.5463 6.73229 57.9422 6.03958 57.8901 5.35729C57.8328 4.66458 57.5411 4.31562 57.0151 4.31562C56.4838 4.31562 56.088 4.68542 55.8276 5.41979C55.6192 4.57604 55.7338 3.60208 56.1817 2.50312C56.6245 1.39375 57.4838 0.836456 58.7651 0.836456C59.5411 0.836456 60.1245 1.10208 60.5151 1.62812C60.9161 2.15937 61.1192 2.83646 61.1192 3.66979C61.1192 5.31042 60.4422 6.88854 59.0984 8.39896C57.7651 9.89896 55.9838 11.1229 53.7651 12.0656C51.5567 13.0135 49.1297 13.4823 46.4942 13.4823C45.1192 13.4823 43.588 13.3521 41.9109 13.0865C41.588 13.826 40.9161 14.3937 39.8901 14.7948C38.8588 15.1854 37.8172 15.274 36.7651 15.0656C35.7078 14.8573 34.9161 14.2271 34.3901 13.1698C34.6505 13.326 34.9422 13.399 35.2651 13.399C36.1088 13.399 36.687 13.0865 36.9942 12.4615C37.312 11.826 37.2495 11.1073 36.8067 10.3156C36.3588 9.52396 35.3953 8.81562 33.9109 8.19062C32.437 7.55521 30.3536 7.23229 27.6609 7.23229C25.6609 7.23229 23.588 7.47708 21.4526 7.96146C19.312 8.43542 17.3484 9.15937 15.5567 10.1281C13.7651 11.1021 12.312 12.3312 11.2026 13.8156C10.1036 15.2896 9.55674 16.9979 9.55674 18.9406C9.55674 19.9406 9.80674 20.774 10.3067 21.4406C10.8067 22.0969 11.4526 22.4198 12.2442 22.4198C12.8276 22.4198 13.3901 22.2271 13.9317 21.8365C14.4838 21.4354 14.8745 20.8937 15.0984 20.2115C14.9838 22.951 14.0463 25.076 12.2859 26.5865C10.5203 28.0865 8.60883 28.8365 6.55674 28.8365C4.59841 28.8365 3.03591 28.1646 1.86924 26.8156C0.712992 25.4719 0.140076 23.826 0.140076 21.8781Z" fill="#edebe7"/>
<path d="M38.6597 61.6698C39.717 61.2948 40.5556 60.5656 41.1806 59.4823C41.816 58.399 42.4774 56.5188 43.1597 53.8365L50.2847 26.5448C51.0764 23.5344 51.4306 21.2896 51.3472 19.8156C51.2743 18.3469 50.7899 17.4198 49.8889 17.0448V16.8156H61.4514L71.4097 53.8365C72.0451 56.3677 72.691 58.2011 73.3472 59.3365C74.0139 60.4615 74.8681 61.2427 75.9097 61.6698V61.899H62.2431V61.6698C63.3368 61.2427 64.0191 60.3313 64.2847 58.9406C64.5451 57.5396 64.3108 55.4146 63.5764 52.5656L63.0972 50.8156H49.6597L49.2639 52.5656C48.566 55.3573 48.3264 57.4563 48.5347 58.8573C48.7535 60.2479 49.441 61.1854 50.5972 61.6698V61.899H38.6597V61.6698ZM50.8472 46.0865H61.9097L56.0556 24.649L50.8472 46.0865Z" fill="#edebe7"/>
<path d="M75.4396 61.6698C76.7 61.2427 77.5854 60.3573 78.0854 59.024C78.5854 57.6802 78.8354 55.524 78.8354 52.5656V26.149C78.8354 23.1906 78.5854 21.0396 78.0854 19.6906C77.5854 18.3469 76.7 17.4615 75.4396 17.0448V16.8156H89.3562V17.0448C88.0906 17.4615 87.2104 18.3469 86.7104 19.6906C86.2104 21.0396 85.9604 23.1906 85.9604 26.149V34.524L92.4604 26.149C94.7781 23.1906 96.0698 21.0396 96.3354 19.6906C96.5958 18.3469 96.2781 17.4615 95.3771 17.0448V16.8156H108.044V17.0448C106.986 17.5188 105.861 18.3261 104.669 19.4615C103.486 20.6021 102.132 22.1698 100.606 24.1698L96.5646 29.5448L105.023 52.5656C105.924 54.774 106.674 56.5031 107.273 57.7531C107.882 58.9927 108.481 59.8886 109.065 60.4406C109.648 60.9979 110.335 61.4094 111.127 61.6698V61.899H96.6479V61.6698C97.7417 61.2427 98.3667 60.3573 98.5229 59.024C98.6896 57.6802 98.2417 55.524 97.1896 52.5656L91.0229 35.4823L85.9604 42.4406V52.5656C85.9604 55.524 86.2104 57.6802 86.7104 59.024C87.2104 60.3573 88.0906 61.2427 89.3562 61.6698V61.899H75.4396V61.6698Z" fill="#edebe7"/>
<path d="M110.007 61.6698C111.267 61.2427 112.152 60.3573 112.652 59.024C113.152 57.6802 113.402 55.524 113.402 52.5656V26.149C113.402 23.1906 113.152 21.0396 112.652 19.6906C112.152 18.3469 111.267 17.4615 110.007 17.0448V16.8156H134.694C135.277 16.8156 135.908 16.7688 136.59 16.6698C137.267 16.5604 137.715 16.3938 137.923 16.1698L133.736 24.7115L133.507 24.649C133.767 22.4302 132.241 21.3156 128.923 21.3156H120.527V33.1906H120.694C121.277 32.1386 122.038 31.2948 122.986 30.6698C123.928 30.0344 124.986 29.7115 126.152 29.7115C127.569 29.7115 128.908 30.0344 130.173 30.6698C131.449 31.2948 132.741 31.6073 134.048 31.6073C135.366 31.6073 136.345 31.1073 136.986 30.1073L137.215 30.1698C136.85 31.6594 136.074 33.1021 134.882 34.5031C133.699 35.8938 132.262 36.5865 130.569 36.5865C129.678 36.5865 128.809 36.4094 127.965 36.0448C127.116 35.6698 126.257 35.3052 125.382 34.9406C124.517 34.5656 123.616 34.3781 122.673 34.3781C121.824 34.3781 121.111 34.6646 120.527 35.2323V57.149H128.527C130.736 57.149 132.72 56.6021 134.486 55.5031C136.262 54.3938 137.517 52.9146 138.257 51.0656L138.569 51.149L136.423 62.774C136.059 62.1906 135.298 61.899 134.132 61.899H110.007V61.6698Z" fill="#edebe7"/>
<path d="M174.08 82.4615C172.757 82.4615 171.69 82.0083 170.872 81.1073C170.049 80.2167 169.643 79.1125 169.643 77.7948C169.643 76.2636 170.143 74.6281 171.143 72.8781C172.153 71.1386 173.424 69.4302 174.955 67.7531C172.424 66.2219 170.356 64.2115 168.747 61.7115C167.132 59.2011 166.33 56.2531 166.33 52.8781C166.33 49.5604 167.106 46.7271 168.664 44.3781C170.216 42.0344 172.273 40.1646 174.83 38.774C177.382 37.3729 180.112 36.4354 183.018 35.9615V30.649C183.018 27.3886 182.924 24.8469 182.747 23.024C182.565 21.2063 182.216 19.8573 181.705 18.9823C181.205 18.1073 180.481 17.5188 179.539 17.2115V16.9615C180.591 16.8677 181.914 16.5396 183.497 15.9823C185.08 15.4302 186.622 14.7271 188.122 13.8781C189.622 13.0344 190.737 12.2219 191.476 11.4406L191.726 11.5865C191.028 12.6438 190.685 15.6802 190.685 20.6906V35.7948C193.018 36.0031 195.362 36.5604 197.726 37.4615C200.101 38.3521 202.08 39.6177 203.664 41.2531C205.247 42.8938 206.039 45.0344 206.039 47.6698C206.039 49.4615 205.466 50.9927 204.33 52.2531C203.205 53.5188 201.716 54.149 199.872 54.149C198.497 54.149 197.32 53.7063 196.351 52.8156C195.377 51.9146 194.893 50.7479 194.893 49.3156C195.31 49.6386 195.726 49.7948 196.143 49.7948C196.935 49.7948 197.487 49.4719 197.81 48.8156C198.127 48.149 198.289 47.5031 198.289 46.8781C198.289 44.8104 197.481 43.2011 195.872 42.0448C194.257 40.8781 192.528 40.1177 190.685 39.7531V44.5031C190.685 48.0344 190.799 50.7219 191.039 52.5656C191.289 54.4146 191.664 55.6906 192.164 56.399C192.664 57.1073 193.336 57.6229 194.185 57.9406V58.1906C191.961 58.5552 189.622 59.3677 187.164 60.6281C184.716 61.8938 182.497 63.3677 180.497 65.0656C183.231 66.8 186.315 67.6698 189.747 67.6698C193.481 67.6698 196.757 66.8781 199.58 65.2948C202.414 63.7115 204.757 61.5813 206.622 58.899C208.497 56.2063 209.903 53.1698 210.851 49.7948C211.81 46.4198 212.289 42.9406 212.289 39.3573C212.289 35.6073 211.773 31.9302 210.747 28.3156C209.716 24.7063 208.164 21.4406 206.08 18.524C203.997 15.5969 201.398 13.2636 198.289 11.524C195.174 9.77397 191.539 8.89897 187.372 8.89897C184.372 8.89897 181.601 9.37813 179.06 10.3365C176.528 11.2844 174.502 12.5448 172.976 14.1281C171.445 15.7115 170.685 17.451 170.685 19.3365C170.685 20.2948 170.919 21.0813 171.393 21.6906C171.862 22.2896 172.466 22.5865 173.205 22.5865C173.841 22.5865 174.44 22.3938 174.997 22.0031C175.549 21.6021 175.961 21.1386 176.226 20.6073C176.112 23.1386 175.294 25.2063 173.768 26.8156C172.237 28.4302 170.336 29.2323 168.06 29.2323C166.06 29.2323 164.424 28.5604 163.164 27.2115C161.898 25.8677 161.268 24.1386 161.268 22.024C161.268 19.649 161.924 17.4198 163.247 15.3365C164.565 13.2531 166.414 11.4302 168.789 9.8573C171.164 8.27397 173.914 7.03959 177.039 6.14897C180.174 5.24793 183.544 4.7948 187.143 4.7948C192.877 4.7948 197.882 5.74793 202.164 7.64897C206.44 9.53959 209.976 12.1073 212.768 15.3573C215.56 18.5969 217.632 22.2063 218.997 26.1906C220.372 30.1646 221.06 34.2636 221.06 38.4823C221.06 42.649 220.398 46.7115 219.08 50.6698C217.773 54.6281 215.815 58.2063 213.205 61.399C210.591 64.5761 207.356 67.1073 203.497 68.9823C199.648 70.8573 195.195 71.7948 190.143 71.7948C187.877 71.7948 185.591 71.5344 183.289 71.024C180.997 70.524 178.851 69.774 176.851 68.774C175.528 70.524 174.872 72.0552 174.872 73.3781C174.872 74.1125 175.049 74.6594 175.414 75.024C175.789 75.399 176.19 75.5865 176.622 75.5865C177.039 75.5865 177.414 75.399 177.747 75.024C178.091 74.6594 178.268 74.1333 178.268 73.4406C178.528 73.925 178.705 74.4198 178.789 74.9198C178.872 75.4198 178.914 75.9042 178.914 76.3781C178.914 77.9042 178.502 79.3 177.685 80.5656C176.862 81.8261 175.664 82.4615 174.08 82.4615ZM174.164 53.0448C174.164 55.3104 174.591 57.3781 175.455 59.2531C176.33 61.1281 177.502 62.6958 178.976 63.9615C179.461 63.5292 179.94 63.1281 180.414 62.7531C180.882 62.3886 181.382 62.0292 181.914 61.6698C182.382 60.3521 182.685 58.8886 182.81 57.274C182.945 55.6646 183.018 54.3313 183.018 53.274V40.149C180.32 40.9979 178.169 42.5656 176.56 44.8573C174.961 47.149 174.164 49.8781 174.164 53.0448Z" fill="#edebe7"/>
<path d="M243.76 57.7948C245.302 57.7948 246.542 57.2063 247.49 56.024C248.432 54.8313 249.125 53.2479 249.573 51.274C250.031 49.2896 250.26 47.1073 250.26 44.7323C250.26 42.0969 249.995 39.3781 249.469 36.5865C248.938 33.7948 248.182 31.2115 247.198 28.8365C246.224 26.4615 245.052 24.5552 243.677 23.1073C242.313 21.649 240.787 20.9198 239.094 20.9198C237.563 20.9198 236.313 21.5188 235.344 22.7115C234.37 23.8938 233.656 25.4615 233.198 27.4198C232.75 29.3677 232.531 31.524 232.531 33.899C232.531 36.5969 232.792 39.3365 233.323 42.1281C233.849 44.9198 234.599 47.5031 235.573 49.8781C236.557 52.2531 237.745 54.1698 239.135 55.6281C240.537 57.0761 242.078 57.7948 243.76 57.7948ZM225.573 38.5656C225.573 31.4979 226.969 25.9927 229.76 22.0448C232.563 18.0865 236.448 16.1073 241.406 16.1073C244.557 16.1073 247.323 17.0865 249.698 19.0448C252.073 20.9927 253.917 23.7063 255.24 27.1906C256.557 30.6646 257.219 34.7219 257.219 39.3573C257.219 43.9406 256.557 47.9927 255.24 51.5031C253.917 55.0031 252.073 57.7323 249.698 59.6906C247.323 61.6386 244.557 62.6073 241.406 62.6073C238.182 62.6073 235.385 61.6229 233.01 59.649C230.635 57.6646 228.802 54.8677 227.51 51.2531C226.219 47.6438 225.573 43.4146 225.573 38.5656Z" fill="#edebe7"/>
<path d="M262.51 24.8781C261.979 22.2427 261.411 20.3729 260.802 19.274C260.203 18.1646 259.375 17.4198 258.323 17.0448V16.8156H272.093V17.0448C270.927 17.4615 270.224 18.3573 269.989 19.7323C269.75 21.1073 269.895 23.2479 270.427 26.149L275.01 52.7948L280.073 26.149C280.599 23.3573 280.875 21.2427 280.906 19.7948C280.932 18.3365 280.552 17.4198 279.76 17.0448V16.8156H291.698V17.0448C291.015 17.3104 290.677 18.0656 290.677 19.3156C290.677 20.5552 290.937 22.6177 291.468 25.5031L296.218 52.7323L300.802 26.149C301.328 23.1906 301.489 21.0396 301.281 19.6906C301.073 18.3469 300.354 17.4615 299.135 17.0448V16.8156H311.01V17.0448C309.953 17.4198 309.104 18.1802 308.468 19.3156C307.843 20.4406 307.291 22.2948 306.823 24.8781L299.781 61.899H290.677L285.052 29.6281L279.052 61.899H269.552L262.51 24.8781Z" fill="#edebe7"/>
<path d="M311.317 61.6698C312.427 61.2948 313.218 60.6386 313.692 59.6906C314.161 58.7323 314.448 57.6802 314.546 56.524C314.656 55.3573 314.713 54.3052 314.713 53.3573V26.4615C314.713 23.7688 314.448 21.6854 313.921 20.2115C313.39 18.7427 312.526 17.6854 311.317 17.0448V16.8156C315.859 16.5552 319.76 17.2896 323.026 19.024C326.302 20.7636 329.015 23.1854 331.171 26.2948C333.338 29.4094 335.052 32.8677 336.317 36.6698V25.3573C336.317 24.399 336.26 23.3469 336.151 22.1906C336.052 21.024 335.76 19.9719 335.276 19.024C334.802 18.0813 334.015 17.4198 332.921 17.0448V16.8156H345.421V17.0448C344.307 17.4198 343.515 18.0813 343.046 19.024C342.573 19.9719 342.281 21.024 342.171 22.1906C342.057 23.3469 342.005 24.399 342.005 25.3573V61.899H336.401C336.401 57.524 335.989 53.3365 335.171 49.3365C334.349 45.3261 333.213 41.7219 331.755 38.524C330.307 35.3313 328.609 32.7219 326.651 30.6906C324.703 28.6646 322.63 27.4146 320.421 26.9406V53.3573C320.421 54.3052 320.468 55.3573 320.567 56.524C320.677 57.6802 320.968 58.7323 321.442 59.6906C321.911 60.6386 322.703 61.2948 323.817 61.6698V61.899H311.317V61.6698Z" fill="#edebe7"/>
</svg>
